<?xml version="1.0" encoding="UTF-8"?>
<svg id="Layer_2" data-name="Layer 2" xmlns="http://www.w3.org/2000/svg" viewBox="0 0 452.39 125.43">
  <defs>
    <style>
      .cls-1 {
        fill: #121245;
      }

      .cls-1, .cls-2, .cls-3, .cls-4, .cls-5 {
        stroke-width: 0px;
      }

      .cls-2 {
        fill: #febb14;
      }

      .cls-4 {
        fill: #fff;
      }

      .cls-5 {
        fill: #00b9fb;
      }
    </style>
  </defs>
  <g id="Layer_1-2" data-name="Layer 1">
    <rect class="cls-1" width="125.43" height="125.43" rx="14.08" ry="14.08"/>
    <path class="cls-5" d="m8.98,66.72v-8.01c1.99-.12,3.48-.76,4.47-1.91.99-1.15,1.49-3.06,1.49-5.73v-11.64c0-6.95,1.27-11.58,3.82-13.87,2.54-2.3,7.82-3.45,15.83-3.45v7.91c-4.47.06-7.34.79-8.61,2.19-1.27,1.4-1.91,4.49-1.91,9.27v10.06c0,6.08-2.02,9.81-6.05,11.17,4.04,1.37,6.05,5.09,6.05,11.17v10.06c0,4.78.64,7.87,1.91,9.26,1.27,1.4,4.14,2.13,8.61,2.19v7.91c-8.01,0-13.28-1.15-15.83-3.45-2.55-2.3-3.82-6.92-3.82-13.87v-11.64c0-2.67-.5-4.58-1.49-5.73-.99-1.15-2.48-1.78-4.47-1.91Z"/>
    <path class="cls-2" d="m116.45,58.71v8.01c-3.97.19-5.96,2.73-5.96,7.64v11.64c0,6.95-1.27,11.58-3.82,13.87-2.55,2.3-7.82,3.45-15.83,3.45v-7.91c4.47-.06,7.34-.79,8.61-2.19,1.27-1.4,1.91-4.49,1.91-9.26v-10.06c0-2.85.53-5.26,1.58-7.22,1.05-1.96,2.54-3.27,4.47-3.96-1.92-.68-3.41-2-4.47-3.96-1.06-1.96-1.58-4.36-1.58-7.22v-10.06c0-4.78-.64-7.87-1.91-9.27-1.27-1.4-4.14-2.13-8.61-2.19v-7.91c8.01,0,13.28,1.15,15.83,3.45,2.54,2.3,3.82,6.92,3.82,13.87v11.64c0,4.9,1.99,7.45,5.96,7.64Z"/>
    <path class="cls-4" d="m85.56,90.99l-29.34-10.38v10.26h-16.35v-19.39l42.53,15.05v-10.56l-42.53-14.97.03-26.43h16.27v9.98s29.39-10.09,29.39-10.09v16.14l-32.58,10.42.02-23.3h-9.96l-.02,21.04,42.53,14.97v17.26Zm-42.53-3.27h10.04v-8.22l-10.04-3.55v11.77Zm13.12-39.84v8.81s26.25-8.4,26.25-8.4v-9.42l-26.25,9.01Z"/>
    <path class="cls-2" d="m424.22,83.2c1.87.08,6.3-.18,8.42-2.2.6-.57,1.38-1.6,1.32-4.02-.19-6.61.8-11.27,3.07-14.49-2.28-3.21-3.26-7.88-3.07-14.49.07-2.42-.72-3.45-1.31-4.01-2.13-2.02-6.56-2.27-8.42-2.2v-10.7c3.11-.07,10.63.29,15.73,5.09,2.24,2.1,4.87,5.91,4.7,12.12-.18,6.34.99,7.9,1.22,8.15.56.59,4.51.64,6.52.69h0v10.7h0c-2.01.05-5.95.1-6.52.7-.24.25-1.4,1.8-1.22,8.15.17,6.21-2.46,10.02-4.7,12.12-4.77,4.48-11.67,5.1-15.08,5.1-.24,0-.45,0-.65,0v-10.7Z"/>
    <path class="cls-3" d="m267.74,31.76h11.21v61.48h-11.21V31.76Z"/>
    <path class="cls-3" d="m335.6,31.76v10.49h-19.26v50.99h-11.93v-50.99h-19.26v-10.49h50.45Z"/>
    <path class="cls-3" d="m342.43,31.76h45.12v10.13h-33.09v15.19h31.64v10.13h-31.64v15.91h33.36v10.13h-45.39V31.76Z"/>
    <path class="cls-5" d="m211.11,83.2c-1.87.08-6.3-.18-8.42-2.2-.6-.57-1.38-1.6-1.32-4.02.19-6.61-.8-11.27-3.07-14.49,2.28-3.21,3.26-7.88,3.07-14.49-.07-2.42.72-3.45,1.31-4.01,2.13-2.02,6.56-2.27,8.42-2.2v-10.7c-3.11-.07-10.63.29-15.73,5.09-2.24,2.1-4.87,5.91-4.7,12.12.18,6.34-.99,7.9-1.22,8.15-.56.59-9.37.69-9.37.69h0v10.7h0s8.81.1,9.37.7c.24.25,1.4,1.8,1.22,8.15-.17,6.21,2.46,10.02,4.7,12.12,4.77,4.48,11.67,5.1,15.08,5.1.24,0,.45,0,.65,0v-10.7Z"/>
    <path class="cls-3" d="m237.82,48.48h1.81c7.59,0,13.14,1.7,16.64,5.11,3.5,3.41,5.24,8.85,5.24,16.32v1.9c0,7.47-1.75,12.91-5.24,16.32-3.5,3.41-9.04,5.11-16.64,5.11h-1.81c-7.59,0-13.14-1.7-16.64-5.11-3.5-3.4-5.24-8.84-5.24-16.32v-1.9c0-7.47,1.75-12.91,5.24-16.32,3.5-3.4,9.04-5.11,16.64-5.11Zm9.99,12.39c-1.6-1.75-4.63-2.62-9.09-2.62s-7.49.87-9.09,2.62c-1.6,1.75-2.4,5.09-2.4,10.04s.8,8.2,2.4,9.95c1.6,1.75,4.62,2.62,9.09,2.62s7.49-.87,9.09-2.62c1.6-1.75,2.4-5.06,2.4-9.95s-.8-8.29-2.4-10.04Z"/>
    <path class="cls-3" d="m452.39,95.65v10.69l-25.6-11.37-2.5-1.11h-.06c-.17,0-.33,0-.5,0h-2.17c-10.31,0-17.66-2.31-22.06-6.92-4.4-4.61-6.6-12.34-6.6-23.19v-2.53c0-10.85,2.2-18.58,6.6-23.19,4.39-4.61,11.75-6.92,22.06-6.92h2.17c.17,0,.34,0,.5,0v10.51c-.51-.02-1.04-.03-1.58-.03-6.75,0-11.36,1.46-13.84,4.39-2.47,2.92-3.7,8.42-3.7,16.49s1.23,13.58,3.7,16.5c2.48,2.92,7.08,4.39,13.84,4.39.54,0,1.07-.01,1.58-.03h.03s.95.43.95.43h.02s1.56.69,1.56.69l.3.14,12.66,5.53,12.52,5.47.12.05Z"/>
    <path class="cls-3" d="m176.28,93.24h-11.93V31.76h11.93v61.48Z"/>
  </g>
</svg>
