<?xml version="1.0" encoding="UTF-8"?>
<svg id="Layer_2" data-name="Layer 2" xmlns="http://www.w3.org/2000/svg" viewBox="0 0 209.28 209.28">
  <defs>
    <style>
      .cls-1 {
        fill: #121245;
      }

      .cls-1, .cls-2, .cls-3, .cls-4 {
        stroke-width: 0px;
      }

      .cls-2 {
        fill: #febb14;
      }

      .cls-3 {
        fill: #fff;
      }

      .cls-4 {
        fill: #00b9fb;
      }
    </style>
  </defs>
  <g id="Layer_1-2" data-name="Layer 1">
    <rect class="cls-1" width="209.28" height="209.28" rx="14.08" ry="14.08"/>
    <path class="cls-4" d="m14.98,111.32v-13.36c3.31-.21,5.8-1.27,7.46-3.18,1.66-1.92,2.49-5.1,2.49-9.56v-19.42c0-11.6,2.12-19.31,6.37-23.15,4.25-3.83,13.05-5.75,26.41-5.75v13.21c-7.46.1-12.25,1.32-14.37,3.65-2.12,2.33-3.19,7.48-3.19,15.46v16.78c0,10.15-3.37,16.37-10.1,18.64,6.73,2.28,10.1,8.49,10.1,18.64v16.78c0,7.97,1.06,13.13,3.19,15.46,2.12,2.33,6.91,3.55,14.37,3.65v13.21c-13.36,0-22.17-1.92-26.41-5.75-4.25-3.83-6.37-11.55-6.37-23.15v-19.42c0-4.45-.83-7.64-2.49-9.55-1.66-1.92-4.14-2.98-7.46-3.19Z"/>
    <path class="cls-2" d="m194.3,97.96v13.36c-6.63.31-9.94,4.56-9.94,12.74v19.42c0,11.6-2.12,19.32-6.37,23.15-4.25,3.83-13.05,5.75-26.41,5.75v-13.21c7.46-.1,12.25-1.32,14.37-3.65,2.12-2.33,3.18-7.48,3.18-15.46v-16.78c0-4.76.88-8.78,2.64-12.04,1.76-3.26,4.24-5.46,7.46-6.6-3.21-1.14-5.7-3.34-7.46-6.6-1.76-3.26-2.64-7.28-2.64-12.04v-16.78c0-7.98-1.06-13.13-3.18-15.46-2.12-2.33-6.91-3.55-14.37-3.65v-13.21c13.36,0,22.16,1.92,26.41,5.75,4.24,3.83,6.37,11.55,6.37,23.15v19.42c0,8.18,3.31,12.43,9.94,12.74Z"/>
    <path class="cls-3" d="m142.75,151.81l-48.94-17.31v17.11h-27.28v-32.35l70.96,25.1v-17.63l-70.96-24.97.04-44.1h27.14l-.02,16.65,49.06-16.84v26.93l-54.35,17.39.04-38.87h-16.62l-.04,35.11,70.96,24.97v28.8Zm-70.96-5.46h16.76v-13.71l-16.76-5.93v19.64Zm21.9-66.47l-.02,14.7,43.82-14.02v-15.72l-43.8,15.04Z"/>
  </g>
</svg>
